<?xml version="1.0" ?><!DOCTYPE svg  PUBLIC '-//W3C//DTD SVG 1.1//EN'  'http://www.w3.org/Graphics/SVG/1.1/DTD/svg11.dtd'><svg enable-background="new 0 0 512 512" height="512px" id="Calque_1" version="1.1" viewBox="0 0 512 512" width="512px" xml:space="preserve" xmlns="http://www.w3.org/2000/svg" xmlns:xlink="http://www.w3.org/1999/xlink"><g><g id="XMLID_1_"><g><g><path d="M273.02,154.63l-3.98-0.44c-2.05,18.67-8.99,36.59-20.08,51.8c-0.03,0.05-0.07,0.1-0.1,0.15      c1.16,0.66,2.27,1.4,3.33,2.22s2.07,1.7,3.01,2.65c0.07-0.1,0.15-0.2,0.22-0.3c0.05-0.05,0.09-0.11,0.12-0.17      c11.84-16.31,19.26-35.49,21.46-55.47L273.02,154.63z" fill="#FFC035"/><path d="M453.39,366.78L316.27,476.51c-11.31,9.04-27.8,7.19-36.83-4.09L143.46,302.48l4.94-44.51l0.88-7.96      l5.17-46.64l6.78-61.16L222.4,149l46.64,5.19c-2.05,18.67-8.99,36.59-20.08,51.8c-0.03,0.05-0.07,0.1-0.1,0.15      c-4.5-2.63-9.74-4.13-15.32-4.13c-16.88,0-30.57,13.68-30.57,30.56c0,3.2,0.49,6.29,1.4,9.18c0.4,1.28,0.89,2.53,1.45,3.73      c0.57,1.22,1.22,2.39,1.94,3.52c5.42,8.5,14.94,14.14,25.78,14.14c16.88,0,30.56-13.69,30.56-30.57c0-8.42-3.4-16.04-8.9-21.56      c0.07-0.1,0.15-0.2,0.22-0.3c0.05-0.05,0.09-0.11,0.12-0.17c11.84-16.31,19.26-35.49,21.46-55.47l44.5,4.95l26,32.49      l109.98,137.45C466.51,341.24,464.7,357.74,453.39,366.78z" fill="#FFC035"/><g opacity="0.2"><path d="M460.1,358.75c-1.62,3.01-3.87,5.76-6.71,8.03L316.27,476.51c-11.31,9.04-27.8,7.19-36.83-4.09       L143.46,302.48l4.94-44.51l0.88-7.96l5.17-46.64l6.78-61.16l11.71,1.3l-5.16,46.53l-5.17,46.64l-0.88,7.96l-4.94,44.51       l135.98,169.94c9.03,11.28,25.52,13.13,36.83,4.09L460.1,358.75z" fill="#303C44"/></g></g></g><g><path d="M347.5,192.51l109.98,137.45c9.03,11.28,7.22,27.78-4.09,36.82L316.27,476.51     c-11.31,9.04-27.8,7.19-36.83-4.09L143.46,302.48" fill="none"/><polyline fill="none" points="143.46,302.48 148.84,253.99 154.45,203.37 161.23,142.21 222.4,149 273.02,154.63 321.5,160.02      347.5,192.51    "/><path d="M205.82,245.48c-1.83-3.92-2.85-8.3-2.85-12.91c0-16.88,13.69-30.56,30.57-30.56     c7.02,0,13.49,2.37,18.65,6.35c7.24,5.58,11.91,14.35,11.91,24.21c0,16.88-13.68,30.57-30.56,30.57     C221.27,263.14,210.69,255.91,205.82,245.48z" fill="none"/><path d="M277.7,142.21c0,4.29-0.24,8.62-0.7,12.86c-2.2,19.98-9.62,39.16-21.46,55.47     c-0.03,0.06-0.07,0.12-0.12,0.17c-0.07,0.1-0.15,0.2-0.22,0.3c-12.2,16.65-28.59,29.78-47.44,37.99     c-0.72-1.13-1.37-2.3-1.94-3.52c-0.56-1.2-1.05-2.45-1.45-3.73c17.68-7.66,33.05-19.96,44.47-35.58     c0.01-0.01,0.01-0.02,0.02-0.03c0.03-0.05,0.07-0.1,0.1-0.15c11.09-15.21,18.03-33.13,20.08-51.8c0.44-3.95,0.66-7.98,0.66-11.98     c0-59.81-48.65-108.46-108.46-108.46c-59.8,0-108.46,48.65-108.46,108.46c0,55.43,41.48,101.77,96.5,107.8l-0.88,7.96     c-59.07-6.48-103.62-56.24-103.62-115.76c0-64.22,52.24-116.46,116.46-116.46S277.7,77.99,277.7,142.21z" fill="#303C44"/></g></g></g></svg>